<svg width="27" height="26" viewBox="0 0 27 26" fill="none" xmlns="http://www.w3.org/2000/svg">
<g id="ep:arrow-down-bold">
<path id="Vector" d="M3.15849 8.60111C3.46322 8.29647 3.87647 8.12534 4.30736 8.12534C4.73825 8.12534 5.1515 8.29647 5.45624 8.60111L13.5 16.6449L21.5437 8.60111C21.8502 8.30511 22.2607 8.14132 22.6868 8.14502C23.1128 8.14872 23.5204 8.31962 23.8217 8.62091C24.123 8.9222 24.2939 9.32977 24.2976 9.75584C24.3013 10.1819 24.1375 10.5924 23.8415 10.8989L14.6489 20.0915C14.3441 20.3961 13.9309 20.5673 13.5 20.5673C13.0691 20.5673 12.6558 20.3961 12.3511 20.0915L3.15849 10.8989C2.85385 10.5941 2.68271 10.1809 2.68271 9.74999C2.68271 9.3191 2.85385 8.90585 3.15849 8.60111Z" fill="black"/>
</g>
</svg>
