<svg width="33" height="32" viewBox="0 0 33 32" fill="none" xmlns="http://www.w3.org/2000/svg">
<g id="openmoji:delete">
<path id="Vector" d="M23.5044 7.55557H9.45688V24.2889C9.45688 26.0933 10.9191 26.7867 12.7235 26.7867H20.2378C22.0422 26.7867 23.5044 26.0933 23.5044 24.2889V7.55557ZM14.2778 7.11112V5.33334H18.7222V7.11112" fill="#6D6C6C" fill-opacity="0.03"/>
<path id="Vector_2" d="M23.1667 16.4445V25.6093L21.9667 26.6667H15.1667L23.1667 16.4445Z" fill="#9B9B9A"/>
<path id="Vector_3" d="M8.05554 7.11111H24.9444V8.88889H8.05554V7.11111Z" fill="white"/>
<path id="Vector_4" d="M14.2778 7.11112V5.33334H18.7222V7.11112M23.1667 11.1111V24.8889C23.1667 25.3604 22.9794 25.8126 22.646 26.146C22.3126 26.4794 21.8604 26.6667 21.3889 26.6667H11.6111C11.1396 26.6667 10.6874 26.4794 10.354 26.146C10.0206 25.8126 9.83332 25.3604 9.83332 24.8889V11.1111M18.7222 12.5556V24.4445M14.2778 12.5556V24.4445M8.05554 7.11112H24.9444V8.8889H8.05554V7.11112Z" stroke="#5B5959" stroke-width="2" stroke-miterlimit="10" stroke-linecap="round" stroke-linejoin="round"/>
</g>
</svg>
