<svg width="27" height="26" viewBox="0 0 27 26" fill="none" xmlns="http://www.w3.org/2000/svg">
<g id="wpf:edit" clip-path="url(#clip0_1_19)">
<path id="Vector" d="M20.594 0.249999C20.293 0.244802 19.994 0.300199 19.7148 0.412895C19.4357 0.525592 19.182 0.693285 18.969 0.905999L17.969 1.937L24.562 8.562L25.562 7.532C25.7777 7.31662 25.9488 7.06082 26.0656 6.77924C26.1823 6.49766 26.2424 6.19582 26.2424 5.891C26.2424 5.58617 26.1823 5.28434 26.0656 5.00276C25.9488 4.72118 25.7777 4.46538 25.562 4.25L22.25 0.936999C21.8098 0.499079 21.2149 0.252248 20.594 0.249999ZM16.844 2.844L15.281 4.344L22.156 11.219L23.75 9.75L16.844 2.844ZM14.28 5.438L3.46999 16.155C3.34717 16.2179 3.23909 16.3061 3.1529 16.4138C3.0667 16.5216 3.00436 16.6464 2.96999 16.78L0.655987 24.625C0.60374 24.7944 0.598691 24.9749 0.641383 25.147C0.684074 25.3191 0.77289 25.4763 0.898272 25.6017C1.02365 25.7271 1.18085 25.8159 1.35296 25.8586C1.52506 25.9013 1.70554 25.8962 1.87499 25.844L9.71899 23.531C9.89704 23.5044 10.0643 23.4291 10.2021 23.3133C10.34 23.1975 10.4431 23.0458 10.5 22.875L21.156 12.312L19.688 10.844L8.74999 21.813L4.34399 23.093L3.40599 22.156L4.74999 17.563L15.594 6.75L14.28 5.438ZM16.655 7.844L5.68699 18.844L7.27999 19.187L7.49899 20.657L18.499 9.687L16.655 7.844Z" fill="#5B5959"/>
</g>
<defs>
<clipPath id="clip0_1_19">
<rect width="26" height="26" fill="white" transform="translate(0.5)"/>
</clipPath>
</defs>
</svg>
